<?xml version="1.0" encoding="UTF-8"?>
<svg width="190px" height="33px" viewBox="0 0 190 33" version="1.1" xmlns="http://www.w3.org/2000/svg" xmlns:xlink="http://www.w3.org/1999/xlink">
    <!-- Generator: Sketch 57.1 (83088) - https://sketch.com -->
    <title>europace-logo-blue</title>
    <desc>Created with Sketch.</desc>
    <g id="Page-1" stroke="none" stroke-width="1" fill="none" fill-rule="evenodd">
        <g id="Landingpage" transform="translate(-160.000000, -47.000000)" fill="#3D5065">
            <g id="HERO" transform="translate(-79.000000, -85.000000)">
                <g id="z" transform="translate(239.000000, 132.000000)">
                    <polygon id="Fill-1" points="90.7142857 26.5746692 90.7142857 32.3137996 95 32.3137996 95 30.5054664 91.1295391 26.5746692"></polygon>
                    <path d="M85.4712535,24.0687516 L87.0304291,22.4097163 L83.4392377,18.7649807 L81.3458724,20.9926552 L81.3428797,20.9881182 C80.4428374,21.9325735 79.2427809,22.4119848 77.9896047,22.4119848 C75.4435997,22.4119848 73.0973546,20.4111611 73.0973546,16.576627 C73.0973546,12.6997474 75.4435997,10.7397568 77.9896047,10.7397568 C79.3714653,10.7397568 80.6934726,11.3189825 81.6144636,12.4660912 L90.9553021,21.9529901 L90.9553021,21.9711382 L95.2415387,26.2457627 C96.6503331,27.0193238 98.2693619,27.4541211 100.025305,27.4541211 C105.781685,27.4541211 110.124783,22.8694672 110.124783,16.576627 C110.124783,10.239929 105.781685,5.69686437 100.025305,5.69686437 C97.2683173,5.69686437 94.8382778,6.73962171 93.0501637,8.52266872 L90.9642801,10.7306828 L94.3631931,14.3489525 C94.9871626,13.5194349 96.3996979,11.8566188 98.1429221,11.1443074 C98.7354687,10.8856975 99.3699125,10.7397568 100.025305,10.7397568 C102.57131,10.7397568 104.917555,12.6989913 104.917555,16.576627 C104.917555,20.451238 102.57131,22.4104725 100.025305,22.4104725 C98.6673857,22.4104725 97.3663269,21.8410771 96.4475805,20.727996 L89.0040881,12.8040988 L85.0231028,8.58467459 C83.2312479,6.76608764 80.7780152,5.69837671 77.9896047,5.69837671 C72.232476,5.69837671 67.8893789,10.2406852 67.8893789,16.576627 C67.8893789,22.8702234 72.232476,27.4556335 77.9896047,27.4556335 C81.017428,27.4556335 83.6524647,26.1860254 85.4712535,24.0687516 Z" id="Fill-2"></path>
                    <path d="M130.636546,6.10958153 L130.636546,8.91950632 C128.960656,6.85365203 126.671272,5.73754627 124.01379,5.73754627 C118.371879,5.73754627 114.610854,10.4068912 114.610854,16.6460433 C114.610854,22.9260286 118.331478,27.6369628 124.01379,27.6369628 C126.671272,27.6369628 128.960656,26.5208571 130.636546,24.4141697 L130.636546,27.1825051 L136.114609,27.1825051 L136.114609,6.10958153 L130.636546,6.10958153 Z M125.730829,22.967618 C122.378302,22.967618 120.007367,20.2817049 120.007367,16.6460433 C120.007367,13.0512149 122.296752,10.3653019 125.649279,10.3653019 C127.652116,10.3653019 129.410304,11.5638301 130.636546,13.2576491 L130.636546,20.0752707 C129.450704,21.7690898 127.774815,22.967618 125.730829,22.967618 L125.730829,22.967618 Z M151.772204,27.5953735 C153.326142,27.5953735 155.328979,27.3889393 157.372966,26.7688806 L157.372966,21.7690898 C155.328979,22.5131603 154.020439,22.967618 152.017602,22.967618 C148.297726,22.967618 145.558694,20.1992825 145.558694,16.604454 C145.558694,13.0096256 148.297726,10.3244687 152.017602,10.3244687 C154.020439,10.3244687 155.328979,10.7373371 157.372966,11.4814076 L157.372966,6.39843816 C155.328979,5.94398047 153.326142,5.69671314 151.690654,5.69671314 C145.108299,5.69671314 140.162181,10.1172784 140.162181,16.604454 C140.162181,23.1740521 145.149448,27.5953735 151.772204,27.5953735 L151.772204,27.5953735 Z M181.083807,16.108407 C181.083807,9.66282066 177.077384,5.69671314 171.272373,5.69671314 C165.303514,5.69671314 160.807043,9.82842171 160.807043,16.2324188 C160.807043,23.3812425 165.099265,27.5953735 172.498615,27.5953735 C174.134104,27.5953735 176.710035,27.34735 179.857565,26.3968453 L179.857565,21.7690898 C176.627737,23.0092073 174.70645,23.3812425 172.948262,23.3812425 C168.81914,23.3812425 166.652455,21.8106791 166.162407,18.0510057 L181.083807,18.0510057 L181.083807,16.108407 Z M171.313522,9.58039821 C174.134104,9.58039821 175.728443,11.4814076 176.137689,14.5385997 L166.162407,14.5385997 C166.612054,11.398229 168.451791,9.58039821 171.313522,9.58039821 L171.313522,9.58039821 Z" id="Fill-7"></path>
                    <path d="M185.593221,0.0973557324 C183.633778,0.0973557324 182.106025,1.62481754 182.106025,3.62186043 C182.106025,5.61890332 183.633778,7.16300086 185.593221,7.16300086 C187.536206,7.16300086 189.080418,5.61890332 189.080418,3.62186043 C189.080418,1.62481754 187.536206,0.0973557324 185.593221,0.0973557324 L185.593221,0.0973557324 Z M185.593221,6.60872882 C183.965963,6.60872882 182.703809,5.29979992 182.703809,3.62186043 C182.703809,1.9771924 183.965963,0.650871596 185.593221,0.650871596 C187.22048,0.650871596 188.466174,1.9771924 188.466174,3.62186043 C188.466174,5.29979992 187.22048,6.60872882 185.593221,6.60872882 L185.593221,6.60872882 Z M187.137434,2.89971883 C187.137434,2.26226819 186.572569,1.74202377 185.809441,1.74202377 L184.231561,1.74202377 L184.231561,5.31643564 L185.094944,5.31643564 L185.094944,4.09144151 L185.543094,4.09144151 L186.223924,5.31643564 L187.270607,5.31643564 L186.306971,4.00750673 C186.805248,3.82300144 187.137434,3.38669181 187.137434,2.89971883 L187.137434,2.89971883 Z M185.094944,2.41350203 L185.759314,2.41350203 C186.107959,2.41350203 186.340638,2.64791449 186.340638,2.91711073 C186.340638,3.16815891 186.107959,3.45399087 185.759314,3.45399087 L185.094944,3.45399087 L185.094944,2.41350203 Z" id="Fill-9"></path>
                    <path d="M20.2772883,16.1087851 C20.2772883,9.66319874 16.2708653,5.69633505 10.465854,5.69633505 C4.49699464,5.69633505 -0.000224449464,9.82804363 -0.000224449464,16.2327969 C-0.000224449464,23.3808644 4.29274562,27.5957516 11.6920963,27.5957516 C13.3275847,27.5957516 15.9027682,27.3477281 19.051046,26.3972234 L19.051046,21.7694678 C15.8212182,23.0088292 13.8999308,23.3808644 12.1417434,23.3808644 C8.0126214,23.3808644 5.84593591,21.8110571 5.35513975,18.0506276 L20.2772883,18.0506276 L20.2772883,16.1087851 Z M10.5062549,9.58002013 C13.3275847,9.58002013 14.9219241,11.4810295 15.3304221,14.5389778 L5.35513975,14.5389778 C5.80553501,11.3986071 7.64452428,9.58002013 10.5062549,9.58002013 L10.5062549,9.58002013 Z M39.2836688,6.10995961 L39.2836688,19.5796018 C37.8120285,21.3974326 36.4219382,22.5959608 34.5417998,22.5959608 C32.6205124,22.5959608 30.862325,21.2325877 30.862325,18.6706864 L30.862325,6.10995961 L25.3842617,6.10995961 L25.3842617,19.5380125 C25.3842617,24.7858268 28.6956395,27.5957516 32.4978134,27.5957516 C35.6864921,27.5957516 37.6489286,25.818754 39.2836688,23.2568527 L39.2836688,27.1821271 L44.7213312,27.1821271 L44.7213312,6.10995961 L39.2836688,6.10995961 Z M56.3335982,10.6961259 L56.3335982,6.10995961 L50.8151341,6.10995961 L50.8151341,27.1821271 L56.3335982,27.1821271 L56.3335982,13.753318 C57.8875367,11.9770765 60.3811702,11.3986071 64.3464441,11.3986071 L64.3464441,5.69633505 C59.563426,5.69633505 57.4782905,8.25823634 56.3335982,10.6961259 L56.3335982,10.6961259 Z" id="Fill-4"></path>
                </g>
            </g>
        </g>
    </g>
</svg>